PathFileType	4	(X/Y/Z)	pose_F01_0-77.trc
DataRate	CameraRate	NumFrames	NumMarkers	Units	OrigDataRate	OrigDataStartFrame	OrigNumFrames
30	30	7	21	m	30	28	77
Frame#	Time	CHip			RHip			RKnee			RAnkle			RBigToe			RSmallToe			RHeel			LHip			LKnee			LAnkle			LBigToe			LSmallToe			LHeel			Neck			Nose			RShoulder			RElbow			RWrist			LShoulder			LElbow			LWrist			
		X1	Y1	Z1	X2	Y2	Z2	X3	Y3	Z3	X4	Y4	Z4	X5	Y5	Z5	X6	Y6	Z6	X7	Y7	Z7	X8	Y8	Z8	X9	Y9	Z9	X10	Y10	Z10	X11	Y11	Z11	X12	Y12	Z12	X13	Y13	Z13	X14	Y14	Z14	X15	Y15	Z15	X16	Y16	Z16	X17	Y17	Z17	X18	Y18	Z18	X19	Y19	Z19	X20	Y20	Z20	X21	Y21	Z21	
28	0.9333333333333333	-0.23264104827171958	1.8820436865529624	-0.5130078050182714	-0.23578825283520669	1.8777559537302524	-0.4518357624223906	-0.22210906296968935	1.718880652676768	-0.4276653430314716	-0.25700682565653316	1.5670658080154716	-0.3176942117251599	-0.22358616316737437	1.5219707955508406	-0.3511710441520288	-0.23216717451168878	1.5207661748561032	-0.31154410595800547	-0.27115856580043135	1.5630563682293293	-0.30182384954674596	-0.22638489522750818	1.8865912253457908	-0.5756575002964571	-0.23908628967922216	1.722443173109371	-0.5656427058308285	-0.2727272411066466	1.594860026842173	-0.5182247151777556	-0.24510954334463253	1.5669566380787752	-0.5889572385763733	-0.2500647985793833	1.5748681368859854	-0.6017235390341472	-0.27198747004910384	1.582102357953932	-0.508148131351594	-0.24137470611365697	2.0523342922101513	-0.5137644939964974	-0.2162036846238775	2.126710990256959	-0.5396759794363485	-0.2476786398112507	2.050874918553697	-0.4335419681587232	-0.1865332579660298	2.062972576832847	-0.4606863808568211	-0.1160660285843941	2.1168049026245788	-0.5616483671299992	-0.23423651330660394	2.0563235337581744	-0.5967275191658659	-0.21788617057983548	1.9797808387263258	-0.6539877044655449	-0.20691818306093968	2.0247749159725794	-0.6272021252862505
29	0.9666666666666667	-0.2334833012287714	1.8834597084198184	-0.5163823180909061	-0.2376974733750724	1.8790323823805875	-0.4584420870394018	-0.22230501525077256	1.7174184423224235	-0.42736607748291944	-0.25698181211990895	1.567121561808401	-0.3177243042535957	-0.22330821977874588	1.5207682977781587	-0.35116714940372284	-0.23184862449072374	1.5190384728966315	-0.31143310983017836	-0.26930563605401847	1.565725928070364	-0.30414956013746147	-0.22735511271508957	1.886858085677669	-0.5789603551930499	-0.2374097843085189	1.7254500400900945	-0.567809339485761	-0.27404767611702985	1.5938364834997967	-0.5209629757772131	-0.24342843611817544	1.5643139540533249	-0.5946892592741337	-0.24994297234540186	1.574486288783631	-0.6017316083461228	-0.27198747004910384	1.582102357953932	-0.508148131351594	-0.23943655817724216	2.05349487960282	-0.515701634127561	-0.21621872170614453	2.1252896820408957	-0.5390911182474367	-0.2486969483344338	2.049616101737535	-0.43617761670602695	-0.1947094758863184	2.0556320694765975	-0.4596525329046844	-0.11831086996592716	2.1099796642230935	-0.5578450466314241	-0.23126301729674367	2.0550071927283406	-0.5954776874414883	-0.2187891780971748	1.9799935378247242	-0.6568593142650936	-0.2069215303897611	2.0248136561133667	-0.6273017170157114
30	1.0	-0.23448292807349047	1.883625580210976	-0.5195134184369004	-0.23964237797305343	1.8789849697962941	-0.4563938945028299	-0.22151015750696798	1.7173241895966804	-0.42824014688559514	-0.25518760401839463	1.5686131805199761	-0.31555078541095816	-0.22298607300089252	1.5190530382715715	-0.3513424872959489	-0.23164469373471147	1.5183710161133617	-0.3114138821025441	-0.26890971782494255	1.5658590444215288	-0.3049454438585586	-0.22830140280953062	1.8869068844661985	-0.5821702915923276	-0.23738878071990233	1.7243351609278252	-0.5719177392466921	-0.27398515860670875	1.5937831935432736	-0.5209626969717488	-0.24346553205281532	1.5669429541306399	-0.5863070883168008	-0.2498211461114204	1.5741044406812765	-0.6017396776580983	-0.27198747004910384	1.582102357953932	-0.508148131351594	-0.24046436631325036	2.052496764946294	-0.5188548443916264	-0.21629048584327815	2.1238322184419176	-0.53850654198439	-0.24872548678483952	2.0509845272419622	-0.43671084187810155	-0.19196176170782564	2.052250472820419	-0.458171482325501	-0.12221587626145396	2.107660680749238	-0.5610791126361779	-0.23012217517459313	2.0563148201834145	-0.6011786272339081	-0.21874330693962413	1.9798580953805094	-0.6570616815443643	-0.2067342798871086	2.025965123632661	-0.6271101731651502
31	1.0333333333333334	-0.2334748651610328	1.883601669388977	-0.5164873662058116	-0.23778108608318987	1.8781457312587366	-0.45843729016410245	-0.22229273473432298	1.7207614820210622	-0.42777650112869264	-0.2558862061560074	1.5699636624352533	-0.3147388186076581	-0.22635521134918446	1.5208665625252458	-0.3523957881160594	-0.23374031991065147	1.5213034606962923	-0.3100481316021098	-0.269481149263605	1.5667260685718774	-0.30410636616341047	-0.22842804700353203	1.8855727158673068	-0.5819271258842141	-0.2383653625742384	1.7255271653373712	-0.5710166704314771	-0.2738176960672244	1.5922472485012122	-0.521186233247734	-0.24561930467241824	1.564670865463022	-0.5924399251376419	-0.24981646350953673	1.5737926796878112	-0.6017341876975435	-0.27198747004910384	1.582102357953932	-0.508148131351594	-0.2423405077784398	2.05243283992261	-0.5168452518167358	-0.21638120498874477	2.1227342955882	-0.5387243007988395	-0.24872807960367582	2.050970067173518	-0.4367246328281416	-0.1879832576878021	2.047280651653735	-0.46956112915265824	-0.12224303473046233	2.1014529466933736	-0.5588526273726285	-0.2363426758232762	2.0563051502185408	-0.5946629754936934	-0.2196573133269348	1.9814515857920167	-0.6604756206913988	-0.20687071497117013	2.024808043631407	-0.627315512952041
32	1.0666666666666667	-0.23479559946072365	1.8810438416936948	-0.5193269720102074	-0.23914592401406345	1.8757331493927012	-0.46138713696170275	-0.22327685013316492	1.717704407070839	-0.43060771513687385	-0.2558397531384365	1.5670467880706553	-0.31443268712372807	-0.22337456079866713	1.521299608048868	-0.351205008916593	-0.23200239493620728	1.5201895399527332	-0.3115648098424372	-0.27104052066545525	1.5650065246037217	-0.3023092309621927	-0.23059042652766426	1.8838652810495946	-0.5798236251341862	-0.23835393852769474	1.7251258147216326	-0.5710925764328457	-0.2742762375447533	1.5953414950988423	-0.520696811187948	-0.24493372770348906	1.5661596904187804	-0.5889417201327062	-0.24981178090765307	1.573480918694346	-0.6017286977369887	-0.27198747004910384	1.582102357953932	-0.508148131351594	-0.24238750001454443	2.0524020902082403	-0.5169284606443492	-0.21924548801847743	2.1226720047278835	-0.5395901070092054	-0.24875861475823371	2.050935520652239	-0.43686740428382514	-0.18409388973547283	2.04721754763043	-0.4739999414201212	-0.1231316063630967	2.1040772558549237	-0.5631662119486749	-0.2363726967017164	2.056191693784038	-0.5946559717227916	-0.2153564676272295	1.9800838910223146	-0.6646106604727046	-0.20870624534482163	2.0281605864072723	-0.6249365792949363
33	1.1	-0.23241698550571513	1.8821430083727293	-0.5216077885283538	-0.23956849699985652	1.879228196243659	-0.46512897607342363	-0.2199479286942772	1.7179955501739834	-0.43003055035248966	-0.2553405640344103	1.5663986910124494	-0.3151256480031549	-0.22482003047308063	1.5188443578324178	-0.349414054213829	-0.2315178158462113	1.5197135231573609	-0.3120249118494225	-0.2709160841347021	1.5644029362513505	-0.30225483537761444	-0.22815921845283832	1.8848874619545712	-0.5821077862650557	-0.2380468944234773	1.7240504332635735	-0.5712223367771668	-0.27403628339006286	1.5932931036047375	-0.520992979152671	-0.24493138516390958	1.566288519775911	-0.5889301908995301	-0.25200691517987567	1.5742728627185278	-0.5997208068061781	-0.27198747004910384	1.582102357953932	-0.508148131351594	-0.2404744483778128	2.0512090661595495	-0.5183784389617375	-0.21826914331563668	2.123604639566292	-0.5364215842836254	-0.24687609281455936	2.0485674224257298	-0.4384947677494726	-0.18211904417907457	2.0448310301853354	-0.4758617639223224	-0.1242536135230794	2.102652201417827	-0.5573107936824425	-0.23633473294065613	2.054836801750422	-0.5941223266365171	-0.21757271550124183	1.9800286986195046	-0.6623826167779696	-0.20690594857808664	2.0234960890472946	-0.6267799448547056
34	1.1333333333333333	-0.2355600783309767	1.8824140945767476	-0.5228072477966439	-0.2400433950109527	1.8783608809333971	-0.4652039196626851	-0.21881038168757555	1.719273138955871	-0.4314128839294619	-0.25584298642787784	1.5720549105417072	-0.31529959880885955	-0.2256937811043919	1.522824622362476	-0.3490063163911118	-0.2339439283041277	1.5222600092113643	-0.3099988888436965	-0.27127073800086215	1.5690457628384378	-0.3027734325132818	-0.2293753973366057	1.885116403571606	-0.5852493257484893	-0.23832059001805708	1.7237585071108732	-0.5709202874090306	-0.2742553120102745	1.5953151032622717	-0.5207593343159792	-0.24588522944581598	1.5664518754439645	-0.5922140513265013	-0.24990014098581395	1.5740899330007083	-0.6018081547511961	-0.27198747004910384	1.582102357953932	-0.508148131351594	-0.24040847701168463	2.0512029609090874	-0.5185057614658212	-0.2172756952941658	2.126059912456025	-0.5337993010853771	-0.2441030145888892	2.048659843206454	-0.4459254063024717	-0.18242962222988027	2.0406704216122966	-0.4762752175793202	-0.12846898667510515	2.0976763016857976	-0.5517356243527345	-0.23126292360311687	2.0548577041524343	-0.5954553057090088	-0.218876884340376	1.9784961763969082	-0.6570576887621995	-0.2074407063861454	2.0273744035098096	-0.6296963890870424
